<svg width="122" height="122" viewBox="0 0 122 122" fill="none" xmlns="http://www.w3.org/2000/svg">
<path fill-rule="evenodd" clip-rule="evenodd" d="M61 118C92.4802 118 118 92.4802 118 61C118 29.5198 92.4802 4 61 4C29.5198 4 4 29.5198 4 61C4 92.4802 29.5198 118 61 118ZM61 121C94.1371 121 121 94.1371 121 61C121 27.8629 94.1371 1 61 1C27.8629 1 1 27.8629 1 61C1 94.1371 27.8629 121 61 121ZM56.0503 61.707L37.6655 43.3223L43.3224 37.6654L61.7071 56.0502L79.3848 38.3726L85.0416 44.0294L67.364 61.707L84.3346 78.6776L78.6777 84.3345L61.7071 67.3639L44.0294 85.0416L38.3726 79.3848L56.0503 61.707Z" fill="#FD0707" stroke="black"/>
</svg>
